<?xml version="1.0" encoding="utf-8"?>
<!-- Generator: Adobe Illustrator 22.0.1, SVG Export Plug-In . SVG Version: 6.00 Build 0)  -->
<svg version="1.1" id="Layer_1" xmlns="http://www.w3.org/2000/svg" xmlns:xlink="http://www.w3.org/1999/xlink" x="0px" y="0px"
	 viewBox="0 0 243 70.2" style="enable-background:new 0 0 243 70.2;" xml:space="preserve">
<style type="text/css">
	.st0{fill:#EFF0F1;}
	.st1{fill:#3391C7;}
	.st2{fill:#D3D3D3;}
</style>
<polygon class="st0" points="160.3,7.6 154.4,7.6 135.5,28 135.5,7.6 130.4,7.6 130.4,44.1 135.5,44.1 135.5,34.9 142.6,27.2 
	155.2,44.1 161.4,44.1 146.3,23.1 "/>
<polygon class="st0" points="174.2,28 192.6,28 192.6,23.6 174.2,23.6 174.2,12.1 194.8,12.1 194.8,7.6 169,7.6 169,44.1 
	195.4,44.1 195.4,39.6 174.2,39.6 "/>
<polygon class="st0" points="204.4,7.6 204.4,44.1 209.6,44.1 209.6,15.9 230.5,44.1 235.9,44.1 235.9,7.6 230.8,7.6 230.8,35.9 
	209.7,7.6 "/>
<polygon class="st1" points="65.3,2.7 47,44.1 61.5,44.1 61.5,39 55.2,39 65.1,15.6 75,39 68.9,39 68.9,44.1 83.4,44.1 "/>
<polygon class="st0" points="33.8,7.6 33.8,24 12.6,24 12.6,7.6 7.4,7.6 7.4,44.1 12.6,44.1 12.6,28.5 33.8,28.5 33.8,44.1 
	38.9,44.1 38.9,7.6 "/>
<path class="st2" d="M20.4,55.8l1.7,3.9h-3.4L20.4,55.8z M20,54.8l-3.4,7.6h0.9l0.9-2h4.2l0.9,2h1l-3.4-7.6H20z"/>
<polygon class="st2" points="33.8,54.8 33.8,61 29.2,54.8 28.3,54.8 28.3,62.5 29.1,62.5 29.1,56.3 33.7,62.5 34.6,62.5 34.6,54.8 
	"/>
<polygon class="st2" points="44.3,54.8 40.2,59.3 40.2,54.8 39.4,54.8 39.4,62.5 40.2,62.5 40.2,60.5 41.7,58.8 44.5,62.5 
	45.6,62.5 42.3,58.2 45.4,54.8 "/>
<path class="st2" d="M52.5,55.8l1.7,3.9h-3.4L52.5,55.8z M52,54.8l-3.4,7.6h0.9l0.9-2h4.2l0.9,2h1l-3.4-7.6H52z"/>
<polygon class="st2" points="70.4,54.8 70.4,62.5 74.6,62.5 74.6,61.7 71.3,61.7 71.3,54.8 "/>
<polygon class="st2" points="78.3,54.8 78.3,62.5 83.6,62.5 83.6,61.7 79.2,61.7 79.2,59 83,59 83,58.2 79.2,58.2 79.2,55.6 
	83.5,55.6 83.5,54.8 "/>
<polygon class="st2" points="105.9,54.8 105.9,62.5 111.2,62.5 111.2,61.7 106.8,61.7 106.8,59 110.6,59 110.6,58.2 106.8,58.2 
	106.8,55.6 111.1,55.6 111.1,54.8 "/>
<path class="st2" d="M118.5,55.8l1.7,3.9h-3.4L118.5,55.8z M118.1,54.8l-3.4,7.6h0.9l0.9-2h4.2l0.9,2h1l-3.4-7.6H118.1z"/>
<polygon class="st2" points="126.3,54.8 126.3,62.5 130.5,62.5 130.5,61.7 127.2,61.7 127.2,54.8 "/>
<polygon class="st2" points="140.7,54.8 140.7,62.5 146,62.5 146,61.7 141.5,61.7 141.5,59 145.4,59 145.4,58.2 141.5,58.2 
	141.5,55.6 145.8,55.6 145.8,54.8 "/>
<polygon class="st2" points="158.8,54.8 158.8,55.6 161.3,55.6 161.3,62.5 162.2,62.5 162.2,55.6 164.7,55.6 164.7,54.8 "/>
<path class="st2" d="M170.7,55.8l1.7,3.9H169L170.7,55.8z M170.3,54.8l-3.4,7.6h0.9l0.9-2h4.2l0.9,2h0.9l-3.4-7.6H170.3z"/>
<polygon class="st2" points="176.8,54.8 176.8,55.6 179.3,55.6 179.3,62.5 180.1,62.5 180.1,55.6 182.6,55.6 182.6,54.8 "/>
<polygon class="st2" points="186.6,54.8 186.6,62.5 192,62.5 192,61.7 187.5,61.7 187.5,59 191.4,59 191.4,58.2 187.5,58.2 
	187.5,55.6 191.8,55.6 191.8,54.8 "/>
<path class="st2" d="M215.4,55.8l1.7,3.9h-3.4L215.4,55.8z M215,54.8l-3.4,7.6h0.9l0.9-2h4.2l0.9,2h0.9l-3.4-7.6H215z"/>
<polygon class="st2" points="221.3,54.8 221.3,55.6 223.8,55.6 223.8,62.5 224.7,62.5 224.7,55.6 227.2,55.6 227.2,54.8 "/>
<path class="st2" d="M232.9,55.8l1.7,3.9h-3.4L232.9,55.8z M232.5,54.8l-3.4,7.6h0.9l0.9-2h4.2l0.9,2h1l-3.4-7.6H232.5z"/>
<path class="st0" d="M106.6,28.2H97V12.1h9.5c8.1,0,9.7,4.3,9.7,7.9C116.3,25.3,112.9,28.2,106.6,28.2 M113.7,31.6
	c4.9-1.9,7.4-5.9,7.4-11.7c0-7.8-5.3-12.3-14.6-12.3H91.9v36.5H97V32.8h9.5c0.6,0,1.2,0,1.7-0.1h0.4l6.9,11.5h5.8L113,31.8
	L113.7,31.6z"/>
<path class="st2" d="M63.1,54.8h-3.2v7.6h3.3c1.7,0,2.8-0.8,2.8-2.1c0-1-0.6-1.8-1.7-1.9c0.9-0.2,1.4-0.8,1.4-1.7
	C65.6,55.5,64.6,54.8,63.1,54.8 M60.8,58.1v-2.5h2.3c1,0,1.6,0.4,1.6,1.2s-0.6,1.3-1.6,1.3H60.8z M60.8,61.7V59h2.3l0,0
	c1.2,0,1.9,0.5,1.9,1.3c0,0.9-0.7,1.4-1.9,1.4l0,0H60.8z"/>
<path class="st2" d="M10.4,54.8H7.2v7.6h3.3c1.7,0,2.8-0.8,2.8-2.1c0-1-0.6-1.8-1.7-1.9c0.9-0.2,1.4-0.8,1.4-1.7
	C12.9,55.5,11.9,54.8,10.4,54.8 M8,58.1v-2.5h2.3c1,0,1.6,0.4,1.6,1.2s-0.6,1.3-1.6,1.3H8z M8,61.7V59h2.3l0,0
	c1.2,0,1.9,0.5,1.9,1.3c0,0.9-0.7,1.4-1.9,1.4l0,0H8z"/>
<path class="st2" d="M98.2,54.8h-2.9v7.6h0.9V60h2c0.2,0,0.3,0,0.5,0l1.6,2.4h1l-1.8-2.6c1.1-0.3,1.7-1.2,1.7-2.5
	C101.2,55.8,100.1,54.8,98.2,54.8 M96.2,59.2v-3.6h2c1.4,0,2.2,0.6,2.2,1.8s-0.8,1.8-2.2,1.8H96.2z"/>
<path class="st2" d="M152.8,54.8c-1.6,0-2.6,0.8-2.6,2c0,2.7,4.3,1.7,4.3,3.7c0,0.7-0.7,1.2-1.8,1.2c-0.9,0-1.8-0.4-2.5-1.1
	l-0.4,0.8c0.7,0.7,1.8,1.2,2.9,1.2c1.6,0,2.8-0.8,2.8-2.1c0-2.8-4.3-1.7-4.3-3.7c0-0.7,0.6-1,1.6-1c0.6,0,1.4,0.2,2.1,0.6l0.4-0.8
	C154.5,55.1,153.6,54.8,152.8,54.8"/>
<path class="st2" d="M205.2,54.8h-3.1v7.6h3.1c2.2,0,4-1.6,4-3.8C209.1,56.5,207.4,54.8,205.2,54.8 M203,61.7v-6h2.2
	c1.7,0,3.1,1.3,3.1,3s-1.3,3-3,3H203z"/>
</svg>
